<mxfile host="app.diagrams.net" modified="2023-09-15T12:25:44.518Z" agent="Mozilla/5.0 (Windows NT 10.0; Win64; x64) AppleWebKit/537.36 (KHTML, like Gecko) Chrome/116.0.0.0 Safari/537.36" etag="cuLZMkBSQsM_QPAmIAVD" version="21.7.5" type="device">
  <diagram name="Страница 1" id="ykMWDdC_rx6XrkEppTeH">
    <mxGraphModel dx="989" dy="523" grid="1" gridSize="10" guides="1" tooltips="1" connect="1" arrows="1" fold="1" page="1" pageScale="1" pageWidth="827" pageHeight="1169" math="0" shadow="0">
      <root>
        <mxCell id="0" />
        <mxCell id="1" parent="0" />
        <mxCell id="GtSsYqe8CseLy04RSJ3Y-30" value="Людина" style="shape=umlActor;verticalLabelPosition=bottom;verticalAlign=top;html=1;outlineConnect=0;" vertex="1" parent="1">
          <mxGeometry x="50" y="290" width="30" height="60" as="geometry" />
        </mxCell>
        <mxCell id="GtSsYqe8CseLy04RSJ3Y-42" style="edgeStyle=orthogonalEdgeStyle;rounded=0;orthogonalLoop=1;jettySize=auto;html=1;exitX=1;exitY=0.5;exitDx=0;exitDy=0;entryX=0;entryY=0.5;entryDx=0;entryDy=0;dashed=1;" edge="1" parent="1" source="GtSsYqe8CseLy04RSJ3Y-31" target="GtSsYqe8CseLy04RSJ3Y-32">
          <mxGeometry relative="1" as="geometry">
            <mxPoint x="310.1428571428571" y="160" as="targetPoint" />
          </mxGeometry>
        </mxCell>
        <mxCell id="GtSsYqe8CseLy04RSJ3Y-31" value="Вимірювання фізичного стану" style="ellipse;whiteSpace=wrap;html=1;" vertex="1" parent="1">
          <mxGeometry x="230" y="160" width="200" height="80" as="geometry" />
        </mxCell>
        <mxCell id="GtSsYqe8CseLy04RSJ3Y-32" value="Ведення журналу фізичного здоров&#39;я" style="ellipse;whiteSpace=wrap;html=1;" vertex="1" parent="1">
          <mxGeometry x="490" y="160" width="200" height="80" as="geometry" />
        </mxCell>
        <mxCell id="GtSsYqe8CseLy04RSJ3Y-43" style="edgeStyle=orthogonalEdgeStyle;rounded=0;orthogonalLoop=1;jettySize=auto;html=1;exitX=1;exitY=0.5;exitDx=0;exitDy=0;entryX=0;entryY=0.5;entryDx=0;entryDy=0;dashed=1;" edge="1" parent="1" source="GtSsYqe8CseLy04RSJ3Y-33" target="GtSsYqe8CseLy04RSJ3Y-34">
          <mxGeometry relative="1" as="geometry" />
        </mxCell>
        <mxCell id="GtSsYqe8CseLy04RSJ3Y-46" style="edgeStyle=orthogonalEdgeStyle;rounded=0;orthogonalLoop=1;jettySize=auto;html=1;exitX=0.5;exitY=1;exitDx=0;exitDy=0;entryX=0.5;entryY=0;entryDx=0;entryDy=0;dashed=1;" edge="1" parent="1" source="GtSsYqe8CseLy04RSJ3Y-33" target="GtSsYqe8CseLy04RSJ3Y-35">
          <mxGeometry relative="1" as="geometry" />
        </mxCell>
        <mxCell id="GtSsYqe8CseLy04RSJ3Y-33" value="Вивчення поезії" style="ellipse;whiteSpace=wrap;html=1;" vertex="1" parent="1">
          <mxGeometry x="230" y="280" width="200" height="80" as="geometry" />
        </mxCell>
        <mxCell id="GtSsYqe8CseLy04RSJ3Y-34" value="Поетичні заходи та обговорення творів у літературних групах" style="ellipse;whiteSpace=wrap;html=1;" vertex="1" parent="1">
          <mxGeometry x="490" y="280" width="200" height="80" as="geometry" />
        </mxCell>
        <mxCell id="GtSsYqe8CseLy04RSJ3Y-35" value="Написання власних віршів" style="ellipse;whiteSpace=wrap;html=1;" vertex="1" parent="1">
          <mxGeometry x="230" y="400" width="200" height="80" as="geometry" />
        </mxCell>
        <mxCell id="GtSsYqe8CseLy04RSJ3Y-39" value="" style="endArrow=classic;html=1;rounded=0;entryX=0;entryY=0.5;entryDx=0;entryDy=0;" edge="1" parent="1" target="GtSsYqe8CseLy04RSJ3Y-31">
          <mxGeometry width="50" height="50" relative="1" as="geometry">
            <mxPoint x="90" y="300" as="sourcePoint" />
            <mxPoint x="150" y="290" as="targetPoint" />
          </mxGeometry>
        </mxCell>
        <mxCell id="GtSsYqe8CseLy04RSJ3Y-44" value="" style="endArrow=classic;html=1;rounded=0;entryX=0;entryY=0.5;entryDx=0;entryDy=0;" edge="1" parent="1" target="GtSsYqe8CseLy04RSJ3Y-33">
          <mxGeometry width="50" height="50" relative="1" as="geometry">
            <mxPoint x="90" y="320" as="sourcePoint" />
            <mxPoint x="240" y="220" as="targetPoint" />
          </mxGeometry>
        </mxCell>
        <mxCell id="GtSsYqe8CseLy04RSJ3Y-47" value="" style="endArrow=classic;html=1;rounded=0;entryX=0;entryY=0.5;entryDx=0;entryDy=0;" edge="1" parent="1" target="GtSsYqe8CseLy04RSJ3Y-35">
          <mxGeometry width="50" height="50" relative="1" as="geometry">
            <mxPoint x="90" y="340" as="sourcePoint" />
            <mxPoint x="230" y="340" as="targetPoint" />
          </mxGeometry>
        </mxCell>
        <mxCell id="GtSsYqe8CseLy04RSJ3Y-48" value="" style="swimlane;startSize=0;" vertex="1" parent="1">
          <mxGeometry x="200" y="125" width="510" height="390" as="geometry">
            <mxRectangle x="200" y="125" width="50" height="40" as="alternateBounds" />
          </mxGeometry>
        </mxCell>
      </root>
    </mxGraphModel>
  </diagram>
</mxfile>
